<svg width="25" height="24" viewBox="0 0 25 24" fill="none" xmlns="http://www.w3.org/2000/svg">
<g id="warning">
<path id="Vector" d="M12.5 0C10.1266 0 7.80655 0.703788 5.83316 2.02236C3.85977 3.34094 2.3217 5.21509 1.41345 7.4078C0.505199 9.60051 0.267559 12.0133 0.730582 14.3411C1.1936 16.6689 2.33649 18.8071 4.01472 20.4853C5.69295 22.1635 7.83115 23.3064 10.1589 23.7694C12.4867 24.2324 14.8995 23.9948 17.0922 23.0866C19.2849 22.1783 21.1591 20.6402 22.4776 18.6668C23.7962 16.6935 24.5 14.3734 24.5 12C24.5 8.8174 23.2357 5.76515 20.9853 3.51472C18.7348 1.26428 15.6826 0 12.5 0ZM11.5 7C11.5 6.73478 11.6054 6.48043 11.7929 6.29289C11.9804 6.10536 12.2348 6 12.5 6C12.7652 6 13.0196 6.10536 13.2071 6.29289C13.3946 6.48043 13.5 6.73478 13.5 7V13C13.5 13.2652 13.3946 13.5196 13.2071 13.7071C13.0196 13.8946 12.7652 14 12.5 14C12.2348 14 11.9804 13.8946 11.7929 13.7071C11.6054 13.5196 11.5 13.2652 11.5 13V7ZM12.5 18C12.3022 18 12.1089 17.9414 11.9444 17.8315C11.78 17.7216 11.6518 17.5654 11.5761 17.3827C11.5004 17.2 11.4806 16.9989 11.5192 16.8049C11.5578 16.6109 11.653 16.4327 11.7929 16.2929C11.9328 16.153 12.1109 16.0578 12.3049 16.0192C12.4989 15.9806 12.7 16.0004 12.8827 16.0761C13.0654 16.1518 13.2216 16.28 13.3315 16.4444C13.4414 16.6089 13.5 16.8022 13.5 17C13.5 17.2652 13.3946 17.5196 13.2071 17.7071C13.0196 17.8946 12.7652 18 12.5 18Z" fill="white"/>
</g>
</svg>
